# xmcd CD database file
#
# Track frame offsets:
#	150
#	21237
#	36945
#	63775
#	81110
#	97107
#	116482
#	137345
#	160990
#
# Disc length: 2402 seconds
#
# Revision: 0
# Processed by: cddbd v1.5PL3 Copyright (c) Steve Scherf et al.
# Submitted via: CDex 1.51
#
DISCID=6d096009
DTITLE=Once Upon A Time - Spring is Just Ahead 春一番
DYEAR=1991
DGENRE=Pop
TTITLE0=青い珊瑚礁
TTITLE1=春一番
TTITLE2=さよならの向こう側
TTITLE3=ウォンテッド
TTITLE4=ハートのエースが出てこない
TTITLE5=赤いスイトピー
TTITLE6=テイク・ミー・アウェイ
TTITLE7=微笑みがえし
TTITLE8=Where the music is
EXTD=YEAR: 1991
EXTT0=
EXTT1=
EXTT2=
EXTT3=
EXTT4=
EXTT5=
EXTT6=
EXTT7=
EXTT8=
PLAYORDER=
